<?xml version="1.0" encoding="UTF-8"?>
<svg width="200" id="Layer_1" xmlns="http://www.w3.org/2000/svg" viewBox="0 0 1920 393.11">
  <defs>
    <style>
      .cls-1 {
        fill: #292fe9;
      }

      .cls-2 {
        fill: #65daf2;
      }
    </style>
  </defs>
  <g>
    <path class="cls-1" d="M1456.73,168.98c0-72.93-45.8-108.51-100.06-108.51-57.37,0-107.17,39.13-107.17,115.18,0,80.49,52.92,116.07,106.73,116.07,44.03,0,87.16-24.01,98.72-71.15h-49.81c-8.45,17.34-26.68,25.35-46.69,25.35-29.79,0-56.03-17.79-56.92-54.7h155.2v-22.23ZM1302.42,152.09c4.45-31.57,28.46-45.8,52.92-45.8,28.02,0,48.47,16.9,48.47,45.8h-101.39Z"/>
    <path class="cls-1" d="M1171.68,256.59v39.58c0,35.13-21.79,52.03-47.58,52.03-20.46,0-44.91-8.45-50.7-36.91h-52.03c6.23,57.37,52.92,81.82,102.73,81.82s98.28-31.13,98.72-102.28l.44-114.73c.44-73.38-45.8-115.62-111.17-115.62-55.14,0-83.6,27.57-103.61,64.48l-44.03,80.49c-10.67,19.12-30.24,36.47-55.59,36.47-24.01,0-50.25-11.56-64.93-27.57l-21.35,40.02c17.79,20.9,47.14,37.35,84.94,37.35,24.01,0,51.14-14.23,62.7-35.13h2.67v30.68h51.14v-86.72l28.46-51.14c14.68-26.68,35.58-39.13,59.59-39.13,31.57,0,55.59,20.9,55.59,66.26,0,41.36-18.68,65.37-55.59,65.37-26.24,0-51.58-13.34-65.37-29.79v60.92c12.9,10.23,36.02,18.68,59.59,18.68s49.36-14.23,62.7-35.13h2.67Z"/>
    <path class="cls-1" d="M1919.21,169.87c0-72.93-45.8-108.51-100.06-108.51-57.37,0-107.17,39.13-107.17,115.18,0,80.49,52.92,115.62,106.73,115.62,44.03,0,87.16-23.57,98.72-70.71h-49.81c-8.45,17.34-26.68,24.9-46.69,24.9-29.79,0-56.03-17.34-56.92-54.25h155.2v-22.23ZM1764.9,152.98c4.45-31.57,28.46-45.8,52.92-45.8,28.02,0,48.47,16.9,48.47,45.8h-101.39Z"/>
    <path class="cls-1" d="M1685.75,143.64v143.64h-53.36v-137.86c0-25.35-15.56-40.02-41.8-40.02-32.46,0-48.92,21.35-48.92,58.26v119.62h-52.92V64.93h52.92v32.91c12.45-20.9,30.68-37.35,68.04-37.35,50.7,0,76.04,30.68,76.04,83.16Z"/>
  </g>
  <g>
    <path class="cls-2" d="M722.53,241.92c13.79,0,24.01-8.89,38.69-36.02l44.03-80.49c20.01-36.91,48.47-64.48,103.61-64.48,39.13,0,68.48,16.45,86.27,37.35l-21.35,40.02c-14.68-16.01-40.91-27.57-64.93-27.57s-45.36,12.45-60.03,39.13l-41.8,76.04c-24.46,44.47-48.03,66.26-92.5,66.26-50.25,0-68.04-25.35-68.04-77.82V15.12L700.3,0v64.93h44.47v48.03h-44.47v100.5c0,22.68,9.34,28.46,22.23,28.46Z"/>
    <path class="cls-2" d="M621.59,114.29h-14.68c-38.24,0-57.81,20.9-57.81,64.04v108.95h-53.81V64.93h52.03v32.91c12.01-23.57,32.91-37.35,58.7-37.35h15.56v53.81Z"/>
    <path class="cls-2" d="M108.4,291.72C36.36,291.72.79,236.13.79,175.66S35.47,60.48,108.4,60.48c55.59,0,96.94,31.13,99.17,84.05h-52.92c-3.11-21.35-18.23-34.69-43.58-34.69-40.02,0-55.14,31.13-55.14,65.82,0,36.47,16.01,66.7,54.7,66.7,25.35,0,40.91-14.23,44.03-35.13h54.25c-7.12,55.14-46.25,84.49-100.5,84.49Z"/>
    <path class="cls-2" d="M403.24,64.93v28.44c-13.65-21.28-35.53-32.89-67.59-32.89-52.47,0-100.95,42.69-100.95,115.18s48.47,116.07,100.95,116.07c30.89,0,53.4-12.13,67.59-34.85v30.4h51.14V64.93h-51.14ZM344.98,242.36c-31.57,0-55.59-22.68-55.59-66.7,0-41.36,20.9-65.82,54.25-65.82s56.92,20.9,56.92,65.82c0,40.91-20.01,66.7-55.59,66.7Z"/>
  </g>
</svg>