<svg width="200" height="60" viewBox="0 0 200 60" fill="none" xmlns="http://www.w3.org/2000/svg">
<g id="logo">
<g id="Rare-logo">
<g id="Rare-logo_2">
<g id="Vector_102">
<path d="M132.125 27.94C131.839 26.9846 131.65 25.9869 131.568 24.9584C132.502 23.8312 134.579 21.4529 137.065 19.4133C137.865 18.7576 138.419 18.2489 138.902 17.8043C139.903 16.8844 140.605 16.2388 142.574 15.1336C144.013 14.3273 147.015 12.1759 149.079 9.95294C150.904 10.4179 152.587 11.2429 154.051 12.3489C151.546 13.4213 146.184 15.7429 145.257 16.3657C144.649 16.7745 143.526 18.0636 142.344 19.4198C141.161 20.7771 139.919 22.2017 139.077 22.8784C135.529 25.7247 133.078 27.6134 132.125 27.94Z" fill="black"/>
<path d="M137.531 35.4933C136.063 34.4503 134.801 33.1314 133.818 31.6111C134.372 30.8258 135.387 29.4883 136.605 28.3454C137.493 27.513 138.657 26.7672 139.776 26.0513C140.999 25.268 142.167 24.5205 142.854 23.7344C143.286 23.2401 143.573 22.7935 143.857 22.3501C144.439 21.4434 145.012 20.5499 146.805 19.289C149.301 17.5348 150.7 17.0704 151.763 16.7176C152.304 16.538 152.757 16.3874 153.224 16.1103C154.139 15.5712 155.168 14.5255 155.764 13.8751C156.453 14.5955 157.067 15.389 157.594 16.2431C156.624 16.6994 154.759 17.6375 153.125 18.8127C152.754 19.0793 152.36 19.3022 151.964 19.5266C151.77 19.6363 151.576 19.7463 151.383 19.8619C150.766 20.2347 150.166 20.6385 149.587 21.0734C148.816 21.6532 148.077 22.2917 147.504 23.0717C146.283 24.7387 146.181 26.7784 146.13 28.7768C146.099 29.9468 146.123 31.1168 146.168 32.2868C146.246 34.3286 146.331 36.4067 146.399 38.0572C146.143 38.0712 145.885 38.0783 145.626 38.0783C144.492 38.0783 143.39 37.9429 142.334 37.6872C142.515 35.1134 142.836 31.7012 143.331 30.2367C144.177 27.7379 144.582 25.995 144.582 25.995C144.582 25.995 141.238 29.3739 140.324 30.9477C139.976 31.55 139.553 32.2125 139.117 32.8967C138.57 33.7535 138.002 34.6442 137.531 35.4933Z" fill="black"/>
<path d="M152.116 36.4024C151.008 37.0017 149.812 37.4556 148.552 37.7388C148.354 34.5887 148.199 29.5891 149.002 27.4515C150.051 24.6616 151.525 23.6685 152.539 22.9856C152.701 22.876 152.852 22.7745 152.987 22.6748C153.08 22.6068 153.18 22.5336 153.287 22.455C154.32 21.7002 156.04 20.4429 158.121 18.3986C158.225 18.2964 158.325 18.2016 158.421 18.1136C158.638 18.619 158.827 19.1396 158.986 19.6733C158.967 19.6819 158.948 19.6907 158.929 19.6997C158.587 19.863 158.405 20.202 158.226 20.5354C158.16 20.66 158.093 20.7838 158.019 20.8973C157.712 21.3667 157.375 21.8154 157.034 22.2606C156.71 22.6817 156.379 23.1062 155.957 23.4203C155.816 23.5256 155.665 23.6174 155.515 23.7088C155.415 23.7702 155.314 23.8314 155.217 23.8966C154.811 24.1692 154.46 24.5074 154.109 24.8457C153.949 24.9997 153.782 25.1528 153.612 25.3076C152.939 25.9223 152.238 26.5628 151.89 27.3928C151.566 28.1608 151.486 28.9906 151.407 29.8154C151.383 30.0581 151.36 30.3003 151.331 30.5404C151.127 32.1909 151.598 34.5072 152.116 36.4024Z" fill="black"/>
<path d="M157.506 31.4975C156.683 32.7959 155.659 33.9507 154.477 34.9163C154.045 31.2927 154.316 30.1873 154.547 29.244C154.611 28.9842 154.672 28.7368 154.714 28.4524C154.898 27.2133 157.871 23.7067 158.351 24.1589C158.607 24.3978 158.326 24.754 157.941 25.2421C157.525 25.7692 156.988 26.45 156.875 27.3031C156.677 28.7867 156.939 30.3697 157.506 31.4975Z" fill="black"/>
<path d="M145.21 9.52783C144.971 9.769 144.742 10.0231 144.509 10.2821C143.632 11.2557 142.693 12.2977 140.901 12.9765C139.036 13.6859 135.869 17.0568 133.548 19.5268C132.843 20.2773 132.216 20.9446 131.727 21.4288C131.723 21.4331 131.718 21.4373 131.714 21.4415C132.802 14.8126 138.401 9.72734 145.21 9.52783Z" fill="black"/>
</g>
<g id="Vector_103">
<path d="M27.8486 44.3987H22.2307C21.8137 44.3987 21.4406 44.2107 21.2102 43.8384L15.2192 34.9918H9.6013V43.5582C9.6013 44.0743 9.27579 44.4024 8.76374 44.4024H4.07482C3.51888 44.4024 3.19336 44.0743 3.19336 43.5582V12.341C3.19336 11.825 3.51888 11.4969 4.07482 11.4969H14.8498C22.7903 11.4969 28.0863 16.0381 28.0863 23.3845C28.0863 28.0657 25.7163 31.6228 21.6784 33.5395L28.4594 43.3666C28.8325 43.9748 28.5508 44.395 27.8559 44.395L27.8486 44.3987ZM14.2866 29.3301C18.6061 29.3301 21.437 26.9894 21.437 23.3881C21.437 19.4551 18.5585 17.1624 14.3305 17.1624H9.59399V29.3301H14.2866ZM61.2928 44.3987H56.3222C55.8577 44.3987 55.5322 44.1664 55.3457 43.6983L53.0232 38.0365H39.0442L36.7217 43.6983C36.5352 44.1664 36.2096 44.3987 35.7451 44.3987H30.7746C30.1236 44.3987 29.8456 44.0227 30.0797 43.4145L43.6856 12.1493C43.8246 11.7291 44.2415 11.4932 44.706 11.4932H47.493C47.9575 11.4932 48.3306 11.7255 48.5135 12.1493L61.9804 43.4145C62.2108 44.0227 61.9328 44.3987 61.2855 44.3987H61.2928ZM50.9823 32.559L46.0593 20.6715L41.0887 32.559H50.9823ZM89.163 44.3987H83.545C83.1281 44.3987 82.755 44.2107 82.5246 43.8384L76.5336 34.9918H70.9157V43.5582C70.9157 44.0743 70.5902 44.4024 70.0781 44.4024H65.3892C64.8332 44.4024 64.5077 44.0743 64.5077 43.5582V12.341C64.5077 11.825 64.8332 11.4969 65.3892 11.4969H76.1642C84.1046 11.4969 89.4007 16.0381 89.4007 23.3845C89.4007 28.0657 87.0306 31.6228 82.9928 33.5395L89.7737 43.3666C90.1468 43.9748 89.8652 44.395 89.1703 44.395L89.163 44.3987ZM75.6009 29.3301C79.9204 29.3301 82.7514 26.9894 82.7514 23.3881C82.7514 19.4551 79.8729 17.1624 75.6448 17.1624H70.9084V29.3301H75.6009ZM116.327 39.5773V43.5546C116.327 44.0706 116.002 44.3987 115.49 44.3987H94.6858C94.1298 44.3987 93.8043 44.0706 93.8043 43.5546V12.341C93.8043 11.825 94.1298 11.4969 94.6858 11.4969H115.303C115.859 11.4969 116.185 11.825 116.185 12.341V16.3183C116.185 16.8786 115.859 17.2066 115.303 17.2066H100.209V24.9289H113.398C113.954 24.9289 114.279 25.257 114.279 25.8172V29.7945C114.279 30.3106 113.954 30.6386 113.398 30.6386H100.209V38.7369H115.486C115.998 38.7369 116.324 39.017 116.324 39.581L116.327 39.5773ZM118.95 41.5199C118.95 39.7469 120.321 38.2872 122.157 38.2872C123.993 38.2872 125.365 39.7469 125.365 41.5199C125.365 43.2929 123.957 44.7525 122.157 44.7525C120.358 44.7525 118.95 43.2929 118.95 41.5199ZM168.655 33.6354C168.655 27.3654 173.717 22.4519 180.403 22.4519C183.98 22.4519 186.16 23.4361 187.553 24.3723C188.018 24.6525 188.109 25.0764 187.784 25.6846L186.204 28.6813C185.926 29.1974 185.461 29.2416 184.997 29.0094C184.115 28.4933 182.813 28.0252 181.094 28.0252C177.378 28.0252 174.873 30.3658 174.873 33.6427C174.873 36.9197 177.334 39.2603 181.003 39.2603C182.813 39.2603 184.068 38.8401 185.044 38.2761C185.556 37.996 185.926 38.0881 186.16 38.5563L187.784 41.6931C188.062 42.1612 187.97 42.5372 187.506 42.8616C186.624 43.4698 184.349 44.8262 180.399 44.8262C173.574 44.8262 168.651 39.9607 168.651 33.6391L168.655 33.6354Z" fill="#1D8BB2"/>
<path fill-rule="evenodd" clip-rule="evenodd" d="M145.693 45.6356C157.624 45.6356 167.295 35.8608 167.295 23.8029C167.295 11.745 157.624 1.97021 145.693 1.97021C133.763 1.97021 124.091 11.745 124.091 23.8029C124.091 35.8608 133.763 45.6356 145.693 45.6356ZM145.693 40.5973C154.871 40.5973 162.31 33.0782 162.31 23.8029C162.31 14.5276 154.871 7.00853 145.693 7.00853C136.516 7.00853 129.076 14.5276 129.076 23.8029C129.076 33.0782 136.516 40.5973 145.693 40.5973Z" fill="#1D8BB2"/>
<path d="M155.107 41.437L152.949 42.6966L155.026 46.3325L153.586 47.1723L159.818 58.0806C160.506 59.2855 162.03 59.6983 163.222 59.0027L163.942 58.5828C165.134 57.8872 165.543 56.3465 164.854 55.1416L158.623 44.2333L157.184 45.0729L155.107 41.437Z" fill="#1D8BB2"/>
</g>
</g>
</g>
</g>
</svg>
